<?xml version="1.0" encoding="utf-8"?>
<!-- Generator: Adobe Illustrator 21.1.0, SVG Export Plug-In . SVG Version: 6.00 Build 0)  -->
<svg version="1.1" id="Layer_1" xmlns="http://www.w3.org/2000/svg" xmlns:xlink="http://www.w3.org/1999/xlink" x="0px" y="0px"
	 viewBox="0 0 400 125" style="enable-background:new 0 0 400 125;" xml:space="preserve">
<style type="text/css">
	.st0{fill:#3B4C85;}
	.st1{opacity:0.12;}
	.st2{fill:#FFFFFF;}
	.st3{opacity:0.25;fill:#FFFFFF;stroke:#FFFFFF;stroke-width:0.8907;stroke-miterlimit:10;enable-background:new    ;}
	.st4{opacity:0.24;fill:#FFFFFF;stroke:#FFFFFF;stroke-width:0.8907;stroke-miterlimit:10;enable-background:new    ;}
	.st5{opacity:0.41;fill:#FFFFFF;stroke:#FFFFFF;stroke-width:0.8907;stroke-miterlimit:10;enable-background:new    ;}
	.st6{opacity:0.32;fill:#FFFFFF;stroke:#FFFFFF;stroke-width:0.8907;stroke-miterlimit:10;enable-background:new    ;}
	.st7{opacity:0.18;fill:#FFFFFF;stroke:#FFFFFF;stroke-width:0.8907;stroke-miterlimit:10;enable-background:new    ;}
	.st8{opacity:0.17;fill:#FFFFFF;stroke:#FFFFFF;stroke-width:0.8907;stroke-miterlimit:10;enable-background:new    ;}
	.st9{opacity:0.48;fill:#FFFFFF;stroke:#FFFFFF;stroke-width:0.8907;stroke-miterlimit:10;enable-background:new    ;}
	.st10{opacity:0.31;fill:#FFFFFF;stroke:#FFFFFF;stroke-width:0.8907;stroke-miterlimit:10;enable-background:new    ;}
	.st11{opacity:0.49;fill:#FFFFFF;stroke:#FFFFFF;stroke-width:0.8907;stroke-miterlimit:10;enable-background:new    ;}
	.st12{opacity:0.33;fill:#FFFFFF;stroke:#FFFFFF;stroke-width:0.8907;stroke-miterlimit:10;enable-background:new    ;}
	.st13{opacity:0.15;fill:#FFFFFF;stroke:#FFFFFF;stroke-width:0.8907;stroke-miterlimit:10;enable-background:new    ;}
	.st14{opacity:0.53;fill:#FFFFFF;stroke:#FFFFFF;stroke-width:0.8907;stroke-miterlimit:10;enable-background:new    ;}
	.st15{opacity:0.6;fill:#FFFFFF;stroke:#FFFFFF;stroke-width:0.8907;stroke-miterlimit:10;enable-background:new    ;}
	.st16{opacity:0.3;fill:#FFFFFF;stroke:#FFFFFF;stroke-width:0.8907;stroke-miterlimit:10;enable-background:new    ;}
	.st17{opacity:0.37;fill:#FFFFFF;stroke:#FFFFFF;stroke-width:0.8907;stroke-miterlimit:10;enable-background:new    ;}
	.st18{opacity:0.46;fill:#FFFFFF;stroke:#FFFFFF;stroke-width:0.8907;stroke-miterlimit:10;enable-background:new    ;}
	.st19{opacity:0.55;fill:#FFFFFF;stroke:#FFFFFF;stroke-width:0.8907;stroke-miterlimit:10;enable-background:new    ;}
	.st20{opacity:0.42;fill:#FFFFFF;stroke:#FFFFFF;stroke-width:0.8907;stroke-miterlimit:10;enable-background:new    ;}
	.st21{opacity:0.2;fill:#FFFFFF;stroke:#FFFFFF;stroke-width:0.8907;stroke-miterlimit:10;enable-background:new    ;}
	.st22{opacity:0.54;fill:#FFFFFF;stroke:#FFFFFF;stroke-width:0.8907;stroke-miterlimit:10;enable-background:new    ;}
	.st23{opacity:0.27;fill:#FFFFFF;stroke:#FFFFFF;stroke-width:0.8907;stroke-miterlimit:10;enable-background:new    ;}
	.st24{opacity:0.38;fill:#FFFFFF;stroke:#FFFFFF;stroke-width:0.8907;stroke-miterlimit:10;enable-background:new    ;}
	.st25{opacity:0.47;fill:#FFFFFF;stroke:#FFFFFF;stroke-width:0.8907;stroke-miterlimit:10;enable-background:new    ;}
	.st26{opacity:0.22;fill:#FFFFFF;enable-background:new    ;}
	.st27{opacity:0.5;fill:#FFFFFF;stroke:#FFFFFF;stroke-width:0.8907;stroke-miterlimit:10;enable-background:new    ;}
	.st28{opacity:0.16;fill:#FFFFFF;enable-background:new    ;}
	.st29{opacity:0.28;fill:#FFFFFF;enable-background:new    ;}
	.st30{opacity:0.15;fill:#FFFFFF;enable-background:new    ;}
	.st31{opacity:0.35;fill:#FFFFFF;stroke:#FFFFFF;stroke-width:0.8907;stroke-miterlimit:10;enable-background:new    ;}
	.st32{opacity:0.1;fill:#FFFFFF;stroke:#FFFFFF;stroke-width:0.8907;stroke-miterlimit:10;enable-background:new    ;}
	.st33{enable-background:new    ;}
	.st34{fill:#2B3C6D;}
	.st35{fill:none;stroke:#BDCBE5;stroke-miterlimit:10;}
</style>
<rect class="st0" width="400" height="125"/>
<g class="st1">
	<g>
		<ellipse transform="matrix(0.5259 -0.8505 0.8505 0.5259 69.771 35.0486)" class="st2" cx="66.3" cy="-45.1" rx="3.6" ry="3.6"/>
		<ellipse transform="matrix(0.5259 -0.8505 0.8505 0.5259 110.6176 16.135)" class="st2" cx="69.8" cy="-91.2" rx="3.7" ry="3.7"/>

			<ellipse transform="matrix(0.5259 -0.8505 0.8505 0.5259 390.0293 75.6656)" class="st2" cx="262.9" cy="-312" rx="4.3" ry="4.3"/>

			<ellipse transform="matrix(0.5259 -0.8505 0.8505 0.5259 334.0272 47.0703)" class="st2" cx="209.2" cy="-276.1" rx="4.3" ry="4.3"/>

			<ellipse transform="matrix(0.5259 -0.8505 0.8505 0.5259 344.597 127.1993)" class="st2" cx="286.4" cy="-245.5" rx="3.2" ry="3.2"/>
		<ellipse transform="matrix(0.5259 -0.8505 0.8505 0.5259 250.828 90.0086)" class="st2" cx="206.2" cy="-180" rx="3.8" ry="3.8"/>

			<ellipse transform="matrix(0.5259 -0.8505 0.8505 0.5259 284.4216 159.1483)" class="st2" cx="285" cy="-175.6" rx="3.1" ry="3.1"/>

			<ellipse transform="matrix(0.5259 -0.8505 0.8505 0.5259 267.6097 55.8164)" class="st2" cx="183.9" cy="-212.1" rx="3.5" ry="3.5"/>

			<ellipse transform="matrix(0.5259 -0.8505 0.8505 0.5259 -10.3504 133.2071)" class="st2" cx="114.3" cy="75.9" rx="4.9" ry="4.9"/>

			<ellipse transform="matrix(0.5259 -0.8505 0.8505 0.5259 -88.894 273.6955)" class="st2" cx="201.1" cy="216.6" rx="3.8" ry="3.8"/>

			<ellipse transform="matrix(0.5259 -0.8505 0.8505 0.5259 114.805 190.3158)" class="st2" cx="228.1" cy="-7.8" rx="3.8" ry="3.8"/>

			<ellipse transform="matrix(0.5259 -0.8505 0.8505 0.5259 60.3497 373.3141)" class="st2" cx="365.1" cy="132.5" rx="4.6" ry="4.6"/>
		<ellipse transform="matrix(0.5259 -0.8505 0.8505 0.5259 -31.8081 338.965)" class="st2" cx="288.2" cy="198" rx="3.1" ry="3.1"/>

			<ellipse transform="matrix(0.5259 -0.8505 0.8505 0.5259 61.3648 313.0186)" class="st2" cx="311.5" cy="101.5" rx="3.7" ry="3.7"/>

			<ellipse transform="matrix(0.5259 -0.8505 0.8505 0.5259 67.8458 244.0162)" class="st2" cx="252.8" cy="61.1" rx="3.2" ry="3.2"/>

			<ellipse transform="matrix(0.5259 -0.8505 0.8505 0.5259 17.2595 270.3402)" class="st2" cx="251.1" cy="119.7" rx="3.2" ry="3.2"/>
		<ellipse transform="matrix(0.5259 -0.8505 0.8505 0.5259 130.0786 329.6803)" class="st2" cx="360.8" cy="48.2" rx="4" ry="4"/>

			<ellipse transform="matrix(0.5259 -0.8505 0.8505 0.5259 335.32 182.5525)" class="st2" cx="331.4" cy="-209.5" rx="4.1" ry="4.1"/>

			<ellipse transform="matrix(0.5259 -0.8505 0.8505 0.5259 230.9859 192.1795)" class="st2" cx="287.9" cy="-111.1" rx="2.8" ry="2.8"/>

			<ellipse transform="matrix(0.5259 -0.8505 0.8505 0.5259 287.6681 315.7432)" class="st2" cx="427.1" cy="-100.2" rx="4.3" ry="4.3"/>

			<ellipse transform="matrix(0.5259 -0.8505 0.8505 0.5259 167.2488 177.7962)" class="st2" cx="243.1" cy="-61.1" rx="4.9" ry="4.9"/>

			<ellipse transform="matrix(0.5259 -0.8505 0.8505 0.5259 234.7628 352.2259)" class="st2" cx="433.3" cy="-34.5" rx="4.7" ry="4.7"/>

			<ellipse transform="matrix(0.5259 -0.8505 0.8505 0.5259 182.9254 276.2523)" class="st2" cx="339.3" cy="-26" rx="4.1" ry="4.1"/>

			<ellipse transform="matrix(0.5259 -0.8505 0.8505 0.5259 173.8042 425.3757)" class="st2" cx="468.5" cy="56.8" rx="3.5" ry="3.5"/>

			<ellipse transform="matrix(0.5259 -0.8505 0.8505 0.5259 234.7624 352.2257)" class="st2" cx="433.3" cy="-34.5" rx="5.7" ry="5.7"/>

			<ellipse transform="matrix(0.5259 -0.8505 0.8505 0.5259 234.7639 352.2266)" class="st2" cx="433.3" cy="-34.5" rx="4.6" ry="4.6"/>

			<ellipse transform="matrix(0.5259 -0.8505 0.8505 0.5259 29.4004 108.0931)" class="st2" cx="111.7" cy="27.7" rx="4.5" ry="4.5"/>

			<ellipse transform="matrix(0.5259 -0.8505 0.8505 0.5259 180.8656 93.0546)" class="st2" cx="173.9" cy="-115.7" rx="5.6" ry="5.6"/>

			<ellipse transform="matrix(0.5259 -0.8505 0.8505 0.5259 -39.9117 -5.7413)" class="st2" cx="-25.1" cy="32.9" rx="2.9" ry="2.9"/>
		<ellipse transform="matrix(0.5259 -0.8505 0.8505 0.5259 -53.4098 51.0554)" class="st2" cx="19.1" cy="73.4" rx="3.7" ry="3.7"/>
		<ellipse transform="matrix(0.5259 -0.8505 0.8505 0.5259 69.771 35.0486)" class="st2" cx="66.3" cy="-45.1" rx="3.6" ry="3.6"/>
		<ellipse transform="matrix(0.5259 -0.8505 0.8505 0.5259 38.0999 -10.2072)" class="st2" cx="9.9" cy="-39.3" rx="4.3" ry="4.3"/>

			<ellipse transform="matrix(0.5259 -0.8505 0.8505 0.5259 152.3527 44.9039)" class="st2" cx="116.5" cy="-114.2" rx="3.1" ry="3.1"/>

			<ellipse transform="matrix(0.5259 -0.8505 0.8505 0.5259 211.8325 -47.0898)" class="st2" cx="63.7" cy="-213.6" rx="3.7" ry="3.7"/>
		<ellipse transform="matrix(0.5259 -0.8505 0.8505 0.5259 -122.1416 122.0386)" class="st2" cx="48.4" cy="170.6" rx="5" ry="5"/>

			<ellipse transform="matrix(0.5259 -0.8505 0.8505 0.5259 -10.3504 133.2071)" class="st2" cx="114.3" cy="75.9" rx="4.9" ry="4.9"/>

			<ellipse transform="matrix(0.5259 -0.8505 0.8505 0.5259 -21.2167 199.0978)" class="st2" cx="168" cy="118.6" rx="3.3" ry="3.3"/>

			<ellipse transform="matrix(0.5259 -0.8505 0.8505 0.5259 103.6291 308.8545)" class="st2" cx="328.9" cy="61.5" rx="4.6" ry="4.6"/>

			<ellipse transform="matrix(0.5259 -0.8505 0.8505 0.5259 60.3497 373.3141)" class="st2" cx="365.1" cy="132.5" rx="4.6" ry="4.6"/>
	</g>
	<g>
		<polygon class="st3" points="433.5,-34.5 468.5,56.8 339.4,-26 		"/>
		<polygon class="st4" points="19.2,73.4 -25,32.9 66.4,-45.2 		"/>
		<polygon class="st5" points="-25,32.9 10,-39.3 66.4,-45.2 		"/>
		<polygon class="st6" points="10,-39.3 69.9,-91.2 66.4,-45.2 		"/>
		<polygon class="st7" points="69.9,-91.2 116.5,-114.2 66.4,-45.2 		"/>
		<polygon class="st8" points="69.9,-91.2 63.8,-213.6 116.5,-114.2 		"/>
		<polygon class="st9" points="63.8,-213.6 183.9,-212.2 116.5,-114.2 		"/>
		<polygon class="st5" points="63.8,-213.6 209.3,-276.2 183.9,-212.2 		"/>
		<polygon class="st10" points="209.3,-276.2 263,-312.2 183.9,-212.2 		"/>
		<polygon class="st6" points="263,-312.2 206.2,-180 286.4,-245.5 		"/>
		<polygon class="st11" points="206.2,-180 285.1,-175.6 286.4,-245.5 		"/>
		<polygon class="st12" points="285.1,-175.6 331.5,-209.6 286.4,-245.5 		"/>
		<polygon class="st9" points="183.9,-212.2 206.2,-180 263,-312.2 		"/>
		<polygon class="st13" points="183.9,-212.2 173.9,-115.7 206.2,-180 		"/>
		<polygon class="st14" points="116.5,-114.2 173.9,-115.7 66.4,-45.2 		"/>
		<polygon class="st15" points="111.7,27.7 19.2,73.4 66.4,-45.2 		"/>
		<polygon class="st3" points="19.2,73.4 48.4,170.6 114.3,75.9 		"/>
		<polygon class="st16" points="48.4,170.6 168.1,118.6 114.3,75.9 		"/>
		<polygon class="st6" points="168.1,118.6 48.4,170.6 201.2,216.6 		"/>
		<polygon class="st17" points="168.1,118.6 288.3,198 201.2,216.6 		"/>
		<polygon class="st18" points="168.1,118.6 228.2,-7.9 252.9,61.1 		"/>
		<polygon class="st19" points="252.9,61.1 328.9,61.5 228.2,-7.9 		"/>
		<polygon class="st20" points="328.9,61.5 365.2,132.5 360.9,48 		"/>
		<polygon class="st21" points="252.9,61.1 311.5,101.5 328.9,61.5 		"/>
		<polygon class="st22" points="311.5,101.5 365.2,132.5 328.9,61.5 		"/>
		<polygon class="st23" points="311.5,101.5 288.3,198 365.2,132.5 		"/>
		<polygon class="st13" points="311.5,101.5 251.1,119.6 252.9,61.1 		"/>
		<polygon class="st8" points="251.1,119.6 288.3,198 168.1,118.6 		"/>
		<polygon class="st24" points="339.4,-26 468.5,56.8 360.9,48 		"/>
		<polygon class="st25" points="287.9,-111.1 331.5,-209.6 427.2,-100.2 		"/>
		<polygon class="st8" points="339.4,-26 243.2,-61.2 427.2,-100.2 		"/>
		<polygon class="st6" points="243.2,-61.2 287.9,-111.1 427.2,-100.2 		"/>
		<polygon class="st26" points="285.1,-175.6 331.5,-209.6 286.4,-245.5 		"/>
		<polygon class="st11" points="339.4,-26 433.5,-34.5 427.2,-100.2 		"/>
		<polygon class="st27" points="287.9,-111.1 285.1,-175.6 206.2,-180 		"/>
		<polygon class="st28" points="-25,32.9 10,-39.3 66.4,-45.2 		"/>
		<polygon class="st29" points="69.9,-91.2 63.8,-213.6 116.5,-114.2 		"/>
		<polygon class="st30" points="311.5,101.5 288.3,198 365.2,132.5 		"/>
		<polygon class="st19" points="243.2,-61.2 173.9,-115.7 287.9,-111.1 		"/>
		<polygon class="st22" points="111.7,27.7 114.3,75.9 228.2,-7.9 		"/>
		<polygon class="st14" points="228.2,-7.9 243.2,-61.2 339.4,-26 		"/>
		<polygon class="st31" points="228.2,-7.9 328.9,61.5 339.4,-26 		"/>
		<polygon class="st32" points="243.2,-61.2 111.7,27.7 173.9,-115.7 		"/>
	</g>
</g>
<g id="ICOmarks">
	<g id="IC">
		<path class="st2" d="M46.9,66.6h-7.4V34h7.4V66.6z"/>
		<path class="st2" d="M65.3,66.6c-2.1,0-4.2-0.4-6.2-1.2c-1.9-0.7-3.8-1.9-5.3-3.6c-1.6-1.6-2.7-3.3-3.5-5.3
			c-0.7-1.9-1.3-4.1-1.3-6.2c0-2.2,0.5-4.3,1.3-6.3s1.9-3.7,3.5-5.2c1.6-1.6,3.4-2.8,5.5-3.6c2-0.8,4.1-1.2,6.2-1.2s4.2,0.4,6.1,1.2
			c1.9,0.7,3.8,1.9,5.3,3.6l-5.3,5.3c-0.8-0.8-1.9-1.5-3-1.9c-1-0.5-2.2-0.6-3.3-0.6c-1,0-2.2,0.2-3.3,0.6c-1,0.5-2,1-2.9,1.9
			c-0.7,0.8-1.5,1.9-1.9,2.9s-0.6,2.2-0.6,3.4s0.3,2.3,0.6,3.3c0.5,1,1,2,1.9,2.8c0.8,0.8,1.9,1.5,2.9,1.9c1,0.5,2.1,0.6,3.3,0.6
			c1,0,2.2-0.2,3.3-0.6c1-0.5,2.1-1,3-1.9l5.3,5.3c-1.6,1.6-3.4,2.8-5.3,3.6C69.5,66.2,67.4,66.6,65.3,66.6z"/>
	</g>
	<g id="marks">
		<path class="st2" d="M148.6,36.5c3.1,0,5.7,0.9,7.8,2.8c1.9,1.9,3,4.7,3,8.6v14.8h-2.6V47.8c-0.1-2.8-0.8-5-2.2-6.6
			c-1.4-1.5-3.5-2.2-6.4-2.2c-1.7,0-3.1,0.4-4.6,1c-1.5,0.7-2.8,1.9-4.1,3.8c0.4,1.2,0.6,2.6,0.6,4.3v14.7h-2.6V48
			c0-5.9-2.9-8.9-8.7-8.9c-3.4,0-6,1.5-8,4.2v19.5h-2.6V37.5h2.1l0.5,2.6c2.4-2.3,5.2-3.5,8.4-3.5c4.3,0,7.4,1.8,9.4,5.1
			c1.5-1.8,3-3,4.4-3.9C144.4,36.9,146.3,36.5,148.6,36.5z"/>
		<path class="st2" d="M163.5,55.5c-0.1-1.6,0.2-3,0.7-4.2c0.6-1.3,1.5-2.1,2.5-2.9c1-0.7,2.3-1.3,3.6-1.6c1.4-0.4,2.8-0.5,4.3-0.5
			c2.1,0.1,4.1,0.5,5.6,1.4c1.6,0.8,3,1.8,4,3v-1c0-3.6-0.7-6.2-2.1-8c-1.5-1.8-3.6-2.5-6.7-2.5c-1.8,0-3.5,0.4-5.1,1
			c-1.7,0.6-3,1.7-4,2.9l-1.5-2.2c1.3-1.4,2.8-2.4,4.7-3.1c1.9-0.7,3.8-1,5.8-1c3.8,0,6.6,1,8.5,3.1c1.9,2,2.9,5.2,2.9,9.5V63h-2.1
			l-0.5-2.6c-0.9,0.8-2.3,1.7-4.2,2.3s-3.6,1-5.3,1c-3.3,0.1-6-0.6-8-1.9C164.8,60.4,163.6,58.3,163.5,55.5z M184.3,57.9v-4.1
			c-0.6-1.3-1.9-2.4-3.6-3.5c-1.8-1.1-3.8-1.7-5.8-1.8c-1-0.1-2.1,0-3.1,0.3c-1,0.2-1.9,0.6-2.8,1c-0.8,0.5-1.6,1.3-2,2.1
			c-0.5,0.9-0.6,2-0.6,3.3c0.1,1.9,0.9,3.4,2.5,4.3c1.6,0.9,3.6,1.5,6,1.6c1.8,0,3.5-0.3,5.2-0.8C181.7,59.9,183,59.1,184.3,57.9z"
			/>
		<path class="st2" d="M204.3,36.8l-0.6,2.6c-0.3,0-0.6-0.1-1-0.1c-4,0-6.8,1.4-8.8,4.1v19.4h-2.6V37.5h2.1l0.6,2.6
			c2.4-2.3,5.6-3.5,9.1-3.5C203.3,36.6,203.8,36.6,204.3,36.8z"/>
		<path class="st2" d="M210.9,24.7v38h-2.6v-38H210.9z M228.1,37.5l-12.4,12.6l13,12.6H225l-12.6-12.6l12.2-12.6
			C224.6,37.5,228.1,37.5,228.1,37.5z"/>
		<path class="st2" d="M250.9,39.2l-1.3,2.2c-0.7-0.6-1.9-1.3-3.5-1.9s-3.1-0.8-4.6-0.8c-1.8,0-3.1,0.4-4.3,1
			c-1,0.7-1.7,1.8-1.8,3.1c-0.1,1.6,0.6,2.7,1.9,3.5c1.2,0.6,2.8,1.2,4.8,1.6c2.6,0.6,4.7,1,6.2,1.8c1.6,0.6,2.6,1.7,3.3,3.1
			c0.6,1.4,0.6,2.9,0.4,4.6c-0.5,2.1-1.8,3.8-4,4.7c-1.6,0.7-3.6,1-5.9,1c-1.9,0-4-0.4-5.9-1c-1.9-0.7-3.5-1.6-4.6-2.6l1.3-2.2
			l0.3,0.3c0.7,0.7,2.1,1.6,3.8,2.2c1.8,0.6,3.5,0.9,5.2,0.9c2,0.1,3.7-0.3,4.9-0.9c1.3-0.6,2.1-1.7,2.3-3c0.5-2.2-0.3-3.8-2.3-4.6
			c-1.4-0.6-3.1-1-5.3-1.6c-2.7-0.6-4.6-1.3-5.8-1.9c-2.3-1.4-3.4-3.3-3.1-5.7c0.2-2.3,1.2-4.1,3.1-5.3c1.5-0.9,3.3-1.5,5.6-1.5
			C245,36.2,248.2,37.2,250.9,39.2z"/>
	</g>
	<path id="logo" class="st2" d="M93.5,33.7c-9,0-16.4,7.3-16.4,16.4s7.3,16.4,16.4,16.4s16.4-7.3,16.4-16.4S102.5,33.7,93.5,33.7z
		 M101.2,52.2l1.5,8.3c0,0.1,0,0.2,0,0.3c0,0.3-0.1,0.5-0.2,0.6c-0.1,0.2-0.3,0.3-0.5,0.3s-0.5-0.1-0.6-0.2L94,57.6l-7.4,4
		c-0.3,0.1-0.5,0.2-0.6,0.2c-0.3,0-0.5-0.1-0.6-0.3s-0.2-0.4-0.2-0.6c0-0.1,0-0.2,0.1-0.3l1.5-8.4l-6.4-5.9
		c-0.3-0.3-0.5-0.6-0.5-0.7c0-0.5,0.3-0.6,0.9-0.7l8.4-1.3L93,36c0.2-0.5,0.5-0.6,0.7-0.6s0.6,0.3,0.7,0.6l3.8,7.6l8.4,1.3
		c0.6,0.1,0.9,0.4,0.9,0.7s-0.1,0.5-0.5,0.7L101.2,52.2z"/>
</g>
<g class="st33">
	
	
	
	
	
	
	<path id="major-digit6_" class="st2" d="M278.8,51.2c0-5.7,0.8-10.2,2.5-13.6c1.6-3.5,4-6,7.1-7.8c3.2-1.7,7-2.5,11.6-2.5c1.6,0,3.6,0.1,5.8,0.5v8.5 c-1.8-0.3-3.8-0.5-6-0.5c-3.7,0-6.4,0.8-8.1,2.5c-1.8,1.6-2.7,4.2-3,7.9h0.3c1.6-3.1,4.3-4.7,8-4.7c3.6,0,6.4,1.1,8.3,3.5 c2,2.3,3,5.5,3,9.8c0,4.5-1.2,8-3.8,10.5c-2.5,2.6-6,3.8-10.5,3.8c-4.8,0-8.5-1.6-11.2-4.7C280.1,61,278.8,56.7,278.8,51.2z M293.9,60.2c1.1,0,2.1-0.5,2.8-1.3s1.1-2.2,1.1-4.2c0-3.3-1.2-5-3.8-5c-1.2,0-2.2,0.3-3.1,1.2c-0.8,0.8-1.2,1.8-1.2,3.1 c0,1.7,0.3,3.2,1.1,4.3C291.6,59.5,292.6,60.2,293.9,60.2z"/>
	
	
	
	
	<path id="dot-digit" class="st2" d="M313.6,62.4c0-1.7,0.5-3,1.5-4s2.5-1.3,4.5-1.3c1.8,0,3.2,0.5,4.2,1.3s1.5,2.2,1.5,4c0,1.6-0.5,3-1.5,4 s-2.3,1.3-4.2,1.3s-3.3-0.5-4.3-1.3C314.3,65.5,313.6,64.1,313.6,62.4z"/>
	
	
	<path id="minor-digit2_" class="st2" d="M357.5,68.3h-29.3v-7.1l9.8-10c2.8-3,4.7-5,5.5-6c0.8-1.1,1.5-2,1.8-2.8s0.5-1.6,0.5-2.5c0-1.1-0.3-1.8-1-2.5 c-0.7-0.6-1.6-0.8-2.8-0.8c-1.2,0-2.6,0.3-3.8,1.1c-1.3,0.7-2.8,1.8-4.5,3.2l-6-7c2.1-1.8,3.8-3.2,5.3-4s3-1.3,4.7-1.8 s3.6-0.6,5.7-0.6c2.6,0,5,0.5,7,1.3c2.1,0.8,3.7,2.2,4.8,4c1.1,1.7,1.7,3.6,1.7,5.8c0,1.6-0.2,3.1-0.6,4.5c-0.3,1.3-1,2.7-1.8,4 s-2,2.7-3.3,4s-4.3,4.2-8.8,8.1v0.2h15.3v9L357.5,68.3L357.5,68.3z"/>
	
	
	
	
	
	
    
    
</g>
<g>
	<g>
		<path class="st34" d="M48.2,80.4l2.3,5.5l5.8,0.5c0.4,0,0.6,0.6,0.3,0.8L52.1,91l1.3,5.7c0.1,0.4-0.4,0.7-0.6,0.5l-5.1-3.1
			l-5.1,3.1c-0.4,0.2-0.7-0.1-0.6-0.5l1.3-5.7l-4.4-3.9c-0.3-0.3-0.2-0.7,0.3-0.8l5.8-0.5l2.3-5.5C47.4,80,48,80,48.2,80.4z"/>
	</g>
	<g>
		<path class="st34" d="M81.7,80.4l2.3,5.5l5.8,0.5c0.4,0,0.6,0.6,0.3,0.8L85.6,91l1.3,5.7c0.1,0.4-0.4,0.7-0.6,0.5l-5-3.1l-5.1,3.1
			c-0.4,0.2-0.7-0.1-0.6-0.5l1.3-5.7l-4.4-3.9c-0.3-0.3-0.2-0.7,0.3-0.8l5.8-0.5l2.3-5.5C81,80,81.6,80,81.7,80.4z"/>
	</g>
	<g>
		<path class="st34" d="M115.2,80.4l2.3,5.5l5.8,0.5c0.4,0,0.6,0.6,0.3,0.8l-4.4,3.9l1.3,5.7c0.1,0.4-0.4,0.7-0.6,0.5l-5.1-3.1
			l-5.1,3.1c-0.4,0.2-0.7-0.1-0.6-0.5l1.3-5.7l-4.4-3.9c-0.3-0.3-0.2-0.7,0.3-0.8l5.8-0.5l2.3-5.5C114.6,80,115.1,80,115.2,80.4z"/>
	</g>
	<g>
		<path class="st34" d="M148.8,80.4l2.3,5.5l5.8,0.5c0.4,0,0.6,0.6,0.3,0.8l-4.4,3.9l1.3,5.7c0.1,0.4-0.4,0.7-0.6,0.5l-5.1-3.1
			l-5.1,3.1c-0.4,0.2-0.7-0.1-0.6-0.5l1.3-5.7l-4.4-3.9c-0.3-0.3-0.2-0.7,0.3-0.8l5.9-0.5l2.3-5.5C148.2,80,148.6,80,148.8,80.4z"/>
	</g>
	<g>
		<path class="st34" d="M182.5,80.4l2.3,5.5l5.8,0.5c0.4,0,0.6,0.6,0.3,0.8l-4.4,3.9l1.3,5.7c0.1,0.4-0.4,0.7-0.6,0.5l-5.1-3.1
			l-5.1,3.1c-0.4,0.2-0.7-0.1-0.6-0.5l1.3-5.7l-4.4-3.9c-0.3-0.3-0.2-0.7,0.3-0.8l5.8-0.5l2.3-5.5C181.8,80,182.4,80,182.5,80.4z"/>
	</g>
	<g>
		<path class="st34" d="M216.1,80.4l2.3,5.5l5.8,0.5c0.4,0,0.6,0.6,0.3,0.8L220,91l1.3,5.7c0.1,0.4-0.4,0.7-0.6,0.5l-5.1-3.1
			l-5.1,3.1c-0.4,0.2-0.7-0.1-0.6-0.5l1.3-5.7l-4.4-3.9c-0.3-0.3-0.2-0.7,0.3-0.8l5.8-0.5l2.3-5.5C215.4,80,215.9,80,216.1,80.4z"/>
	</g>
	<g>
		<path class="st34" d="M249.7,80.4l2.3,5.5l5.8,0.5c0.4,0,0.6,0.6,0.3,0.8l-4.4,3.9l1.3,5.7c0.1,0.4-0.4,0.7-0.6,0.5l-5.1-3.1
			l-5.1,3.1c-0.4,0.2-0.7-0.1-0.6-0.5l1.3-5.7l-4.4-3.9c-0.3-0.3-0.2-0.7,0.3-0.8l5.8-0.5l2.3-5.5C249,80,249.5,80,249.7,80.4z"/>
	</g>
	<g>
		<path class="st34" d="M283.2,80.4l2.3,5.5l5.8,0.5c0.4,0,0.6,0.6,0.3,0.8l-4.4,3.9l1.3,5.7c0.1,0.4-0.4,0.7-0.6,0.5l-5.1-3.1
			l-5.1,3.1c-0.4,0.2-0.7-0.1-0.6-0.5l1.3-5.7l-4.4-3.9c-0.3-0.3-0.2-0.7,0.3-0.8l5.8-0.5l2.3-5.5C282.5,80,283,80,283.2,80.4z"/>
	</g>
	<g>
		<path class="st34" d="M316.7,80.4l2.3,5.5l5.8,0.5c0.4,0,0.6,0.6,0.3,0.8l-4.4,3.9l1.3,5.7c0.1,0.4-0.4,0.7-0.6,0.5l-5.1-3.1
			l-5.1,3.1c-0.4,0.2-0.7-0.1-0.6-0.5l1.3-5.7l-4.4-3.9c-0.3-0.3-0.2-0.7,0.3-0.8l5.8-0.5l2.3-5.5C316,80,316.5,80,316.7,80.4z"/>
	</g>
	<g>
		<path class="st34" d="M350.2,80.4l2.3,5.5l5.8,0.5c0.4,0,0.6,0.6,0.3,0.8l-4.4,3.9l1.3,5.7c0.1,0.4-0.4,0.7-0.6,0.5l-5.1-3.1
			l-5.1,3.1c-0.4,0.2-0.7-0.1-0.6-0.5l1.3-5.7l-4.4-3.9c-0.3-0.3-0.2-0.7,0.3-0.8l5.9-0.5l2.3-5.5C349.6,80,350.1,80,350.2,80.4z"/>
	</g>
</g>
<g id="star1"><path class="st2" d="M48.2,80.4l2.3,5.5l5.8,0.5c0.4,0,0.6,0.6,0.3,0.8L52.1,91l1.3,5.7c0.1,0.4-0.4,0.7-0.6,0.5l-5.1-3.1l-5.1,3.1 c-0.4,0.2-0.7-0.1-0.6-0.5l1.3-5.7l-4.4-3.9c-0.3-0.3-0.2-0.7,0.3-0.8l5.8-0.5l2.3-5.5C47.4,80,48,80,48.2,80.4z"/></g>
<g id="star2"><path class="st2" d="M81.7,80.4l2.3,5.5l5.8,0.5c0.4,0,0.6,0.6,0.3,0.8L85.6,91l1.3,5.7c0.1,0.4-0.4,0.7-0.6,0.5l-5-3.1l-5.1,3.1 c-0.4,0.2-0.7-0.1-0.6-0.5l1.3-5.7l-4.4-3.9c-0.3-0.3-0.2-0.7,0.3-0.8l5.8-0.5l2.3-5.5C81,80,81.6,80,81.7,80.4z"/></g>
<g id="star3"><path class="st2" d="M115.2,80.4l2.3,5.5l5.8,0.5c0.4,0,0.6,0.6,0.3,0.8l-4.4,3.9l1.3,5.7c0.1,0.4-0.4,0.7-0.6,0.5l-5.1-3.1 l-5.1,3.1c-0.4,0.2-0.7-0.1-0.6-0.5l1.3-5.7l-4.4-3.9c-0.3-0.3-0.2-0.7,0.3-0.8l5.8-0.5l2.3-5.5C114.6,80,115.1,80,115.2,80.4z"/></g>
<g id="star4"><path class="st2" d="M148.8,80.4l2.3,5.5l5.8,0.5c0.4,0,0.6,0.6,0.3,0.8l-4.4,3.9l1.3,5.7c0.1,0.4-0.4,0.7-0.6,0.5l-5.1-3.1 l-5.1,3.1c-0.4,0.2-0.7-0.1-0.6-0.5l1.3-5.7l-4.4-3.9c-0.3-0.3-0.2-0.7,0.3-0.8l5.9-0.5l2.3-5.5C148.2,80,148.6,80,148.8,80.4z"/></g>
<g id="star5"><path class="st2" d="M182.5,80.4l2.3,5.5l5.8,0.5c0.4,0,0.6,0.6,0.3,0.8l-4.4,3.9l1.3,5.7c0.1,0.4-0.4,0.7-0.6,0.5l-5.1-3.1 l-5.1,3.1c-0.4,0.2-0.7-0.1-0.6-0.5l1.3-5.7l-4.4-3.9c-0.3-0.3-0.2-0.7,0.3-0.8l5.8-0.5l2.3-5.5C181.8,80,182.4,80,182.5,80.4z"/></g>
<g id="star6"><path class="st2" d="M216.1,80.4l2.3,5.5l5.8,0.5c0.4,0,0.6,0.6,0.3,0.8L220,91l1.3,5.7c0.1,0.4-0.4,0.7-0.6,0.5l-5.1-3.1l-5.1,3.1 c-0.4,0.2-0.7-0.1-0.6-0.5l1.3-5.7l-4.4-3.9c-0.3-0.3-0.2-0.7,0.3-0.8l5.8-0.5l2.3-5.5C215.4,80,215.9,80,216.1,80.4z"/></g>




<rect x="14.7" y="15" class="st35" width="370" height="95"/>
</svg>